<svg xmlns="http://www.w3.org/2000/svg" viewBox="0 0 24 30" x="0px" y="0px"><path d="m17,6.25h-1.25v-.25c0-2.068-1.683-3.75-3.75-3.75s-3.75,1.682-3.75,3.75v.25h-1.25c-1.517,0-2.75,1.233-2.75,2.75v8c0,2.619,2.131,4.75,4.75,4.75h6c2.619,0,4.75-2.131,4.75-4.75v-8c0-1.517-1.233-2.75-2.75-2.75Zm-7.25-.25c0-1.241,1.01-2.25,2.25-2.25s2.25,1.009,2.25,2.25v.25h-4.5v-.25Zm8.5,11c0,1.792-1.458,3.25-3.25,3.25h-6c-1.792,0-3.25-1.458-3.25-3.25v-8c0-.689.561-1.25,1.25-1.25h1.25v1.25c0,.414.336.75.75.75s.75-.336.75-.75v-1.25h4.5v1.25c0,.414.336.75.75.75s.75-.336.75-.75v-1.25h1.25c.689,0,1.25.561,1.25,1.25v8Z"/><text x="0" y="39" fill="#000000" font-size="5px" font-weight="bold" font-family="'Helvetica Neue', Helvetica, Arial-Unicode, Arial, Sans-serif">Created by Saepul Nahwan</text><text x="0" y="44" fill="#000000" font-size="5px" font-weight="bold" font-family="'Helvetica Neue', Helvetica, Arial-Unicode, Arial, Sans-serif">from the Noun Project</text></svg>